<svg id="Capa_1" enable-background="new 0 0 510.362 510.362" height="512" viewBox="0 0 510.362 510.362" width="512" xmlns="http://www.w3.org/2000/svg"><g><g fill="#c9ebfa"><circle cx="417.52" cy="407.552" r="20"/><circle cx="299.84" cy="457.552" r="20"/><circle cx="212.16" cy="457.552" r="20"/><circle cx="94.48" cy="407.552" r="20"/></g><path d="m428.739 163.221h-34.08c-5.213-73.322-66.339-131.188-140.988-131.188-58.336 0-108.413 35.341-130.004 85.778-5.516-.951-11.187-1.453-16.975-1.453-54.782 0-99.192 44.41-99.192 99.192s44.41 99.192 99.192 99.192h322.047c41.842 0 75.761-33.919 75.761-75.761 0-41.841-33.919-75.76-75.761-75.76z" fill="#eefaff"/><path d="m288.66 36.408c-42.84 10.92-77.87 41.42-94.99 81.4-5.52-.95-11.19-1.45-16.98-1.45-54.78 0-99.19 44.41-99.19 99.19s44.41 99.19 99.19 99.19h-70c-54.78 0-99.19-44.41-99.19-99.19s44.41-99.19 99.19-99.19c5.79 0 11.46.5 16.98 1.45 21.59-50.43 71.67-85.77 130-85.77 12.08 0 23.8 1.52 34.99 4.37z" fill="#dff1f7"/><path d="m315.492 267.293h-118.984c-8.284 0-15-6.716-15-15v-118.984c0-8.284 6.716-15 15-15h118.984c8.284 0 15 6.716 15 15v118.984c0 8.284-6.716 15-15 15z" fill="#b3e59f"/><path d="m221.508 158.309h68.983v68.984h-68.983z" fill="#eefaff" transform="matrix(0 1 -1 0 448.801 -63.199)"/><g><path d="m270.582 40.594c63.053 7.944 112.089 59.741 116.597 123.16.279 3.926 3.546 6.968 7.481 6.968h34.08c30.982 0 59.63 22.696 66.537 52.97 2.213 4.589 5.207 6.471 8.981 5.644 4.038-.922 6.564-4.942 5.644-8.981-8.444-37.002-43.054-64.632-81.162-64.632h-27.26c-7.985-67.33-61.218-121.467-129.023-130.011-4.103-.518-7.861 2.394-8.379 6.504-.517 4.109 2.395 7.86 6.504 8.378z"/><path d="m504.407 247.364c-4.052-.851-8.032 1.739-8.886 5.792-6.606 31.34-34.692 54.087-66.781 54.087h-121.4v-32.45h8.15c12.406 0 22.5-10.094 22.5-22.5v-17.499h16.597c4.143 0 7.5-3.357 7.5-7.5s-3.357-7.5-7.5-7.5h-16.597v-19.492h28.523c4.143 0 7.5-3.357 7.5-7.5s-3.357-7.5-7.5-7.5h-28.523v-19.492h16.597c4.143 0 7.5-3.357 7.5-7.5s-3.357-7.5-7.5-7.5h-16.597v-17.497c0-12.406-10.094-22.5-22.5-22.5h-17.498v-14.52c0-4.143-3.357-7.5-7.5-7.5s-7.5 3.357-7.5 7.5v14.52h-19.492v-28.525c0-4.143-3.357-7.5-7.5-7.5s-7.5 3.357-7.5 7.5v28.524h-19.492v-14.52c0-4.143-3.357-7.5-7.5-7.5s-7.5 3.357-7.5 7.5v14.52h-17.498c-12.406 0-22.5 10.094-22.5 22.5v17.497h-18.01c-4.143 0-7.5 3.357-7.5 7.5s3.357 7.5 7.5 7.5h18.01v19.492h-28.523c-4.143 0-7.5 3.357-7.5 7.5s3.357 7.5 7.5 7.5h28.523v19.492h-18.01c-4.143 0-7.5 3.357-7.5 7.5s3.357 7.5 7.5 7.5h18.01v17.499c0 12.406 10.094 22.5 22.5 22.5h8.15v32.45h-97.97c-50.559 0-91.69-41.132-91.69-91.69s41.132-91.689 91.69-91.689c5.25 0 10.535.451 15.708 1.341 3.419.586 6.801-1.248 8.166-4.439 19.11-44.638 60.896-75.48 109.052-80.492 4.12-.429 7.112-4.116 6.684-8.236s-4.111-7.116-8.236-6.684c-51.645 5.375-96.7 37.454-118.909 84.235-4.138-.481-8.311-.725-12.464-.725-58.83 0-106.691 47.86-106.691 106.689s47.861 106.69 106.69 106.69h40.29v77.806h-26.049c-3.275-11.527-13.889-19.997-26.451-19.997-15.163 0-27.5 12.337-27.5 27.5s12.337 27.5 27.5 27.5c12.564 0 23.18-8.473 26.453-20.003h33.547c4.143 0 7.5-3.357 7.5-7.5v-85.306h42.68v108.858c-11.528 3.274-20 13.889-20 26.452 0 15.163 12.337 27.5 27.5 27.5s27.5-12.337 27.5-27.5c0-12.563-8.472-23.178-20-26.452v-108.857h72.68v108.857c-11.528 3.274-20 13.889-20 26.452 0 15.163 12.337 27.5 27.5 27.5s27.5-12.337 27.5-27.5c0-12.563-8.472-23.178-20-26.452v-108.857h42.68v85.306c0 4.143 3.357 7.5 7.5 7.5h33.547c3.273 11.53 13.889 20.003 26.453 20.003 15.163 0 27.5-12.337 27.5-27.5s-12.337-27.5-27.5-27.5c-12.562 0-23.176 8.47-26.451 19.997h-26.049v-77.806h63.721c39.14 0 73.398-27.754 81.459-65.993.854-4.053-1.74-8.032-5.793-8.886zm-409.927 172.687c-6.893 0-12.5-5.607-12.5-12.5s5.607-12.5 12.5-12.5 12.5 5.607 12.5 12.5-5.607 12.5-12.5 12.5zm130.18 37.5c0 6.893-5.607 12.5-12.5 12.5s-12.5-5.607-12.5-12.5 5.607-12.5 12.5-12.5 12.5 5.608 12.5 12.5zm87.68 0c0 6.893-5.607 12.5-12.5 12.5s-12.5-5.607-12.5-12.5 5.607-12.5 12.5-12.5 12.5 5.608 12.5 12.5zm-92.68-150.308v-32.45h19.18c4.143 0 7.5-3.357 7.5-7.5s-3.357-7.5-7.5-7.5h-42.33c-4.136 0-7.5-3.364-7.5-7.5v-118.98c0-4.136 3.364-7.5 7.5-7.5h118.98c4.136 0 7.5 3.364 7.5 7.5v118.98c0 4.136-3.364 7.5-7.5 7.5h-43.97c-4.143 0-7.5 3.357-7.5 7.5s3.357 7.5 7.5 7.5h20.82v32.45zm197.86 87.808c6.893 0 12.5 5.607 12.5 12.5s-5.607 12.5-12.5 12.5-12.5-5.607-12.5-12.5 5.607-12.5 12.5-12.5z"/><path d="m297.992 227.293v-68.983c0-4.143-3.357-7.5-7.5-7.5h-68.984c-4.143 0-7.5 3.357-7.5 7.5v68.983c0 4.143 3.357 7.5 7.5 7.5h68.984c4.143 0 7.5-3.358 7.5-7.5zm-15-7.5h-53.984v-53.983h53.984z"/></g></g></svg>