<svg id="Capa_1" enable-background="new 0 0 512 512" height="512" viewBox="0 0 512 512" width="512" xmlns="http://www.w3.org/2000/svg"><g><g><path d="m357.389 200.423h-202.779v-91.533c0-55.996 45.394-101.39 101.39-101.39 55.996 0 101.389 45.394 101.389 101.389z" fill="#9dc6fb"/><path d="m256 7.5c-3.996 0-7.936.239-11.812.689 50.43 5.852 89.578 48.701 89.578 100.701v91.533h23.624v-91.533c-.001-55.996-45.394-101.39-101.39-101.39z" fill="#8993da"/></g><path d="m428.038 394.494h-344.077v-170.49c0-24.069 19.512-43.581 43.581-43.581h256.915c24.069 0 43.581 19.512 43.581 43.581z" fill="#dd636e"/><path d="m384.457 180.423h-21.397c24.069 0 43.581 19.512 43.581 43.581v170.49h21.397v-170.49c0-24.069-19.511-43.581-43.581-43.581z" fill="#c63d4f"/><path d="m354.022 372.859h-196.044c-6.399 0-11.586-5.187-11.586-11.586v-93.686c0-6.399 5.187-11.586 11.586-11.586h196.044c6.399 0 11.586 5.187 11.586 11.586v93.686c0 6.398-5.187 11.586-11.586 11.586z" fill="#d3effb"/><path d="m354.022 256h-22.295c6.399 0 11.586 5.187 11.586 11.586v93.686c0 6.399-5.187 11.586-11.586 11.586h22.295c6.399 0 11.586-5.187 11.586-11.586v-93.686c0-6.399-5.187-11.586-11.586-11.586z" fill="#b1e4f9"/><path d="m256 504.5c-67.2-19.062-134.4-19.062-201.6 0v-202.209c67.2-18.743 134.4-18.743 201.6 0z" fill="#9dc6fb"/><path d="m237.138 297.523v202.128c6.287 1.45 12.575 3.066 18.862 4.849v-202.209c-6.288-1.753-12.575-3.343-18.862-4.768z" fill="#8993da"/><path d="m67.655 438.547h-26.363c-4.283 0-7.754-3.472-7.754-7.754v-68.851c0-4.283 3.472-7.754 7.754-7.754h26.363c4.283 0 7.754 3.472 7.754 7.754v68.851c0 4.282-3.471 7.754-7.754 7.754z" fill="#dd636e"/><path d="m67.655 354.187h-17.937c4.283 0 7.754 3.472 7.754 7.754v68.851c0 4.283-3.472 7.754-7.754 7.754h17.937c4.283 0 7.754-3.472 7.754-7.754v-68.851c0-4.282-3.471-7.754-7.754-7.754z" fill="#c63d4f"/><path d="m256 504.5c67.2-19.062 134.4-19.062 201.6 0v-202.209c-67.2-18.743-134.4-18.743-201.6 0z" fill="#9dc6fb"/><path d="m440.224 297.873v202.134c5.792 1.36 11.584 2.851 17.376 4.494v-202.21c-5.792-1.615-11.584-3.081-17.376-4.418z" fill="#8993da"/><path d="m444.344 438.547h26.363c4.283 0 7.754-3.472 7.754-7.754v-68.851c0-4.283-3.472-7.754-7.754-7.754h-26.363c-4.283 0-7.754 3.472-7.754 7.754v68.851c0 4.282 3.472 7.754 7.754 7.754z" fill="#dd636e"/><path d="m470.708 354.187h-16.771c4.283 0 7.754 3.472 7.754 7.754v68.851c0 4.283-3.472 7.754-7.754 7.754h16.771c4.283 0 7.754-3.472 7.754-7.754v-68.851c0-4.282-3.472-7.754-7.754-7.754z" fill="#c63d4f"/><path d="m298.53 339.307h116.54v40.394h-116.54z" fill="#fff6f4"/><path d="m396.247 339.307h18.823v40.394h-18.823z" fill="#d8e2f1"/><path d="m322.789 142.297c-44.468 15.235-88.935 15.235-133.403 0v-59.173h133.403z" fill="#fff6f4"/><path d="m303.937 83.123v64.708c6.284-1.544 12.568-3.382 18.852-5.535v-59.173z" fill="#d8e2f1"/><g><path d="m470.707 346.688h-5.607v-44.396c0-3.366-2.242-6.32-5.485-7.225-8.013-2.235-16.04-4.197-24.076-5.907v-65.156c0-28.166-22.915-51.081-51.081-51.081h-19.568v-37.696h8.624v2.949c0 4.143 3.357 7.5 7.5 7.5s7.5-3.357 7.5-7.5v-20.897c0-4.143-3.357-7.5-7.5-7.5s-7.5 3.357-7.5 7.5v2.948h-8.624v-11.337c-.001-60.042-48.849-108.89-108.891-108.89-23.858 0-46.515 7.578-65.519 21.915-3.307 2.494-3.965 7.197-1.47 10.504 2.494 3.308 7.196 3.966 10.504 1.471 16.381-12.358 35.914-18.89 56.486-18.89 51.771 0 93.889 42.119 93.889 93.89v64.033h-187.779v-64.033c0-19.987 6.2-39.07 17.931-55.186 2.438-3.35 1.699-8.04-1.65-10.478s-8.039-1.698-10.478 1.649c-13.609 18.697-20.803 40.833-20.803 64.014v11.337h-8.624v-2.948c0-4.143-3.358-7.5-7.5-7.5s-7.5 3.357-7.5 7.5v20.897c0 4.143 3.358 7.5 7.5 7.5s7.5-3.357 7.5-7.5v-2.949h8.624v37.696h-19.568c-28.167 0-51.082 22.915-51.082 51.081v65.156c-8.036 1.71-16.063 3.672-24.076 5.907-3.242.904-5.485 3.858-5.485 7.225v44.396h-5.608c-8.411 0-15.254 6.843-15.254 15.254v24.076c0 4.143 3.358 7.5 7.5 7.5s7.5-3.357 7.5-7.5v-24.076c0-.14.114-.254.254-.254h26.363c.14 0 .254.114.254.254v68.851c0 .141-.114.255-.254.255h-26.362c-.14 0-.254-.114-.254-.255v-14.787c0-4.143-3.358-7.5-7.5-7.5s-7.5 3.357-7.5 7.5v14.787c0 8.411 6.843 15.255 15.254 15.255h5.608v58.453c0 2.351 1.103 4.565 2.978 5.983 1.875 1.417 4.306 1.872 6.569 1.232 65.527-18.588 131.979-18.588 197.506 0 .639.181 1.463.286 2.175.274.619-.01 1.206-.072 1.918-.274 65.527-18.588 131.979-18.588 197.507 0 2.244.634 4.676.198 6.569-1.232 1.875-1.418 2.978-3.633 2.978-5.983v-58.453h5.607c8.411 0 15.255-6.844 15.255-15.255v-68.851c0-8.411-6.844-15.253-15.255-15.253zm-379.246-122.684c0-19.896 16.186-36.081 36.082-36.081h256.915c19.896 0 36.081 16.186 36.081 36.081v62.266c-15.786-2.714-31.605-4.408-47.431-5.102v-13.581c0-10.524-8.562-19.087-19.086-19.087h-25.665c-4.143 0-7.5 3.357-7.5 7.5s3.357 7.5 7.5 7.5h25.665c2.253 0 4.086 1.833 4.086 4.087v13.221c-34.112-.12-68.226 4.454-102.108 13.715-33.883-9.261-67.997-13.835-102.108-13.715v-13.22c0-2.254 1.833-4.087 4.086-4.087h140.392c4.143 0 7.5-3.357 7.5-7.5s-3.357-7.5-7.5-7.5h-140.392c-10.524 0-19.086 8.562-19.086 19.087v13.58c-15.826.694-31.644 2.388-47.431 5.102zm-29.561 270.7v-48.657h5.755c8.411 0 15.254-6.844 15.254-15.255v-68.851c0-8.411-6.843-15.254-15.254-15.254h-5.755v-38.659c61.939-16.299 124.661-16.299 186.6 0v186.676c-61.962-15.917-124.639-15.915-186.6 0zm388.2 0c-61.962-15.918-124.642-15.915-186.6 0v-186.676c61.938-16.299 124.66-16.299 186.6 0v38.659h-5.756c-8.411 0-15.254 6.843-15.254 15.254v68.851c0 8.411 6.843 15.255 15.254 15.255h5.756zm20.862-63.912c0 .141-.114.255-.255.255h-26.363c-.14 0-.254-.114-.254-.255v-68.851c0-.14.114-.254.254-.254h26.363c.141 0 .255.114.255.254z"/><path d="m415.07 331.807h-116.54c-4.143 0-7.5 3.357-7.5 7.5v40.395c0 4.143 3.357 7.5 7.5 7.5h116.54c4.143 0 7.5-3.357 7.5-7.5v-40.395c0-4.143-3.358-7.5-7.5-7.5zm-7.5 40.394h-101.54v-25.395h101.54z"/><path d="m377.622 417.052c4.143 0 7.5-3.357 7.5-7.5s-3.357-7.5-7.5-7.5h-41.646c-4.143 0-7.5 3.357-7.5 7.5s3.357 7.5 7.5 7.5z"/><path d="m392.622 430.903h-71.646c-4.143 0-7.5 3.357-7.5 7.5s3.357 7.5 7.5 7.5h71.646c4.143 0 7.5-3.357 7.5-7.5s-3.357-7.5-7.5-7.5z"/><path d="m145.487 228.333c4.142 0 7.5-3.357 7.5-7.5s-3.358-7.5-7.5-7.5h-13.5c-4.142 0-7.5 3.357-7.5 7.5s3.358 7.5 7.5 7.5z"/><path d="m174.61 228.333h70.78c4.142 0 7.5-3.357 7.5-7.5s-3.358-7.5-7.5-7.5h-70.78c-4.142 0-7.5 3.357-7.5 7.5s3.358 7.5 7.5 7.5z"/><path d="m186.956 149.392c22.937 7.858 46.034 11.788 69.132 11.788s46.195-3.93 69.132-11.788c3.032-1.038 5.069-3.89 5.069-7.095v-59.174c0-4.143-3.357-7.5-7.5-7.5h-133.402c-4.142 0-7.5 3.357-7.5 7.5v59.174c0 3.205 2.037 6.057 5.069 7.095zm9.931-58.769h118.402v46.246c-39.311 12.387-79.093 12.387-118.402 0z"/><path d="m217.533 104.819c-4.142 0-7.5 3.357-7.5 7.5v11.433c0 4.143 3.358 7.5 7.5 7.5s7.5-3.357 7.5-7.5v-11.433c0-4.142-3.358-7.5-7.5-7.5z"/><path d="m294.467 131.252c4.143 0 7.5-3.357 7.5-7.5v-11.433c0-4.143-3.357-7.5-7.5-7.5s-7.5 3.357-7.5 7.5v11.433c0 4.143 3.358 7.5 7.5 7.5z"/></g></g></svg>